<?xml version="1.0" encoding="utf-8"?>
<?xml-stylesheet type="text/xsl" href="rss1.xsl"?>
<rss version="2.0" xmlns:atom="http://www.w3.org/2005/Atom" xmlns:content="http://purl.org/rss/1.0/modules/content/" xmlns:dc="http://purl.org/dc/elements/1.1/" xmlns:media="http://search.yahoo.com/mrss/">
<channel>
 <title>Getty</title>
 <link>http://www.gettyimg.com/</link>
 <atom:link href="http://www.gettyimg.com/" rel="self" type="application/rss+xml" />

 
                <item>
                <title><![CDATA[【Apple Music】WEB-RiP - Pitbull - Don't Stop the Party (feat. TJR) (1080p)]]></title>
                <link><![CDATA[https://sharemania.us/threads/pitbull-dont-stop-the-party-feat-tjr-1080p.249862/]]></link>
                <description><![CDATA[<article>
<blockquote class="messageText SelectQuoteContainer ugc baseHtml">
<img src="https://i.postimg.cc/VsSyj7Yv/Pitbull-Don-t-Stop-the-Party-feat-TJR-mp4.jpg" class="bbCodeImage LbImage" alt="[​IMG]" data-url="https://i.postimg.cc/VsSyj7Yv/Pitbull-Don-t-Stop-the-Party-feat-TJR-mp4.jpg" style=""><br>
<br>
<div class="bbCodeBlock bbCodeCode">
<div class="type">Code:</div>
<pre>General
Complete name                  : G:\Новая папка\Pitbull - Don't Stop the Party (feat. TJR).mp4
Format                         : MPEG-4
Format profile                 : Base Media
Codec ID                       : isom (isom/iso2/avc1/mp41)
File size                      : 250 MiB
Duration                       : 3 min 27 s
Overall bit rate               : 10.1 Mb/s
Frame rate                     : 23.976 FPS
Movie name                     : Don't Stop the Party (feat. TJR)
Performer                      : Pitbull
Genre                          : Pop
ContentType                    : Music Video
Recorded date                  : 2012-10-26 07:00:00 UTC
Writing application            : Lavf56.30.100
Copyright                      : ℗ (C) 2012 RCA Records, a division of Sony Music Entertainment

Video
ID                             : 1
Format                         : AVC
Format/Info                    : Advanced Video Codec
Format profile                 : High@L4
Format settings                : CABAC / 4 Ref Frames
Format settings, CABAC         : Yes
Format settings, Reference fra : 4 frames
Format settings, Slice count   : 8 slices per frame
Codec ID                       : avc1
Codec ID/Info                  : Advanced Video Coding
Duration                       : 3 min 27 s
Bit rate                       : 9 877 kb/s
Width                          : 1 920 pixels
Height                         : 1 080 pixels
Display aspect ratio           : 16:9
Frame rate mode                : Variable
Frame rate                     : 23.976 FPS
Minimum frame rate             : 23.976 FPS
Maximum frame rate             : 24.169 FPS
Color space                    : YUV
Chroma subsampling             : 4:2:0
Bit depth                      : 8 bits
Scan type                      : Progressive
Bits/(Pixel*Frame)             : 0.199
Stream size                    : 244 MiB (97%)
Language                       : English
Color range                    : Limited
Color primaries                : BT.709
Transfer characteristics       : BT.709
Matrix coefficients            : BT.709
Codec configuration box        : avcC

Audio
ID                             : 2
Format                         : AAC LC
Format/Info                    : Advanced Audio Codec Low Complexity
Codec ID                       : mp4a-40-2
Duration                       : 3 min 27 s
Duration_LastFrame             : -21 ms
Bit rate mode                  : Constant
Bit rate                       : 252 kb/s
Channel(s)                     : 2 channels
Channel layout                 : L R
Sampling rate                  : 48.0 kHz
Frame rate                     : 46.875 FPS (1024 SPF)
Compression mode               : Lossy
Stream size                    : 6.21 MiB (2%)
Default                        : Yes
Alternate group                : 1

</pre>
</div>
<div class="bbCodeBlock bbCodeVfcHH HiddenContent">
<div class="attribution type">Hidden Content:</div>
<blockquote>You must either reply or click 'Like' to see the hidden information contained here.</blockquote>
</div>
<div class="messageTextEndMarker">&nbsp;</div>
</blockquote>
</article>]]></description>
                <author><![CDATA[vitalya3]]></author>
                </item>

                
                <item>
                <title><![CDATA[【Requests】[REQ AUD] - Michael Bublé Edits]]></title>
                <link><![CDATA[https://sharemania.us/threads/michael-bubl%C3%A9-edits.249861/]]></link>
                <description><![CDATA[<article>
<blockquote class="messageText SelectQuoteContainer ugc baseHtml">
Does anyone happen to have these rare edits?<br>
<br>
-Hollywood (Radio Edit) - available on "Now: the Hits of Autumn 2011" and promo single<br>
-Me and Mrs. Jones (UK Radio Version)<br>
-Crazy Love (Radio Mix)<br>
-Cry Me A River (Radio Edit)<br>
<br>
Thanks!
<div class="messageTextEndMarker">&nbsp;</div>
</blockquote>
</article>]]></description>
                <author><![CDATA[stronger6than]]></author>
                </item>

                
                <item>
                <title><![CDATA[【Apple Music】WEB-RiP - Direcția 5 &amp; Lidia Buble - Forever Love (1080p)]]></title>
                <link><![CDATA[https://sharemania.us/threads/direc%C8%9Bia-5-lidia-buble-forever-love-1080p.249864/]]></link>
                <description><![CDATA[<article>
<blockquote class="messageText SelectQuoteContainer ugc baseHtml">
<img src="https://i.postimg.cc/PqWwPb75/Direc-ia-5-Lidia-Buble-Forever-Love-mp4.jpg" class="bbCodeImage LbImage" alt="[​IMG]" data-url="https://i.postimg.cc/PqWwPb75/Direc-ia-5-Lidia-Buble-Forever-Love-mp4.jpg" style=""><br>
<br>
<div class="bbCodeBlock bbCodeCode">
<div class="type">Code:</div>
<pre>General
Complete name                  : G:\Новая папка\Direcția 5 &amp; Lidia Buble - Forever Love.mp4
Format                         : MPEG-4
Format profile                 : Base Media
Codec ID                       : isom (isom/iso2/avc1/mp41)
File size                      : 178 MiB
Duration                       : 3 min 39 s
Overall bit rate               : 6 798 kb/s
Frame rate                     : 25.000 FPS
Movie name                     : Forever Love
Performer                      : Direcția 5 &amp; Lidia Buble
Genre                          : Rock
ContentType                    : Music Video
Recorded date                  : 2021-09-08 07:00:00 UTC
Writing application            : Lavf56.30.100
Copyright                      : ℗ 2014 Cat Music

Video
ID                             : 1
Format                         : AVC
Format/Info                    : Advanced Video Codec
Format profile                 : High@L4
Format settings                : CABAC / 5 Ref Frames
Format settings, CABAC         : Yes
Format settings, Reference fra : 5 frames
Format settings, Slice count   : 8 slices per frame
Codec ID                       : avc1
Codec ID/Info                  : Advanced Video Coding
Duration                       : 3 min 39 s
Bit rate                       : 6 531 kb/s
Width                          : 1 920 pixels
Height                         : 864 pixels
Display aspect ratio           : 2.222
Frame rate mode                : Constant
Frame rate                     : 25.000 FPS
Color space                    : YUV
Chroma subsampling             : 4:2:0
Bit depth                      : 8 bits
Scan type                      : Progressive
Bits/(Pixel*Frame)             : 0.157
Stream size                    : 171 MiB (96%)
Color range                    : Limited
Color primaries                : BT.709
Transfer characteristics       : BT.709
Matrix coefficients            : BT.709
Codec configuration box        : avcC

Audio
ID                             : 2
Format                         : AAC LC
Format/Info                    : Advanced Audio Codec Low Complexity
Codec ID                       : mp4a-40-2
Duration                       : 3 min 39 s
Duration_LastFrame             : -17 ms
Bit rate mode                  : Constant
Bit rate                       : 265 kb/s
Channel(s)                     : 2 channels
Channel layout                 : L R
Sampling rate                  : 48.0 kHz
Frame rate                     : 46.875 FPS (1024 SPF)
Compression mode               : Lossy
Stream size                    : 6.87 MiB (4%)
Default                        : Yes
Alternate group                : 1

</pre>
</div>
<div class="bbCodeBlock bbCodeVfcHH HiddenContent">
<div class="attribution type">Hidden Content:</div>
<blockquote>You must either reply or click 'Like' to see the hidden information contained here.</blockquote>
</div>
<div class="messageTextEndMarker">&nbsp;</div>
</blockquote>
</article>]]></description>
                <author><![CDATA[vitalya3]]></author>
                </item>

                
                <item>
                <title><![CDATA[【Apple Music】WEB-RiP - Descemer Bueno &amp; Lidia Buble - Margarita (1080p)]]></title>
                <link><![CDATA[https://sharemania.us/threads/descemer-bueno-lidia-buble-margarita-1080p.249865/]]></link>
                <description><![CDATA[<article>
<blockquote class="messageText SelectQuoteContainer ugc baseHtml">
<img src="https://i.postimg.cc/cLgYNtGX/Descemer-Bueno-Lidia-Buble-Margarita-mp4.jpg" class="bbCodeImage LbImage" alt="[​IMG]" data-url="https://i.postimg.cc/cLgYNtGX/Descemer-Bueno-Lidia-Buble-Margarita-mp4.jpg" style=""><br>
<br>
<div class="bbCodeBlock bbCodeCode">
<div class="type">Code:</div>
<pre>General
Complete name                  : G:\Новая папка\Descemer Bueno &amp; Lidia Buble - Margarita.mp4
Format                         : MPEG-4
Format profile                 : Base Media
Codec ID                       : isom (isom/iso2/avc1/mp41)
File size                      : 232 MiB
Duration                       : 3 min 13 s
Overall bit rate               : 10.0 Mb/s
Frame rate                     : 25.000 FPS
Movie name                     : Margarita
Performer                      : Descemer Bueno &amp; Lidia Buble
Genre                          : Latin
ContentType                    : Music Video
Recorded date                  : 2019-10-14 07:00:00 UTC
Writing application            : Lavf56.30.100
Copyright                      : ℗ 2019 Cat Music Spain / Fly Records

Video
ID                             : 1
Format                         : AVC
Format/Info                    : Advanced Video Codec
Format profile                 : High@L4
Format settings                : CABAC / 4 Ref Frames
Format settings, CABAC         : Yes
Format settings, Reference fra : 4 frames
Format settings, Slice count   : 8 slices per frame
Codec ID                       : avc1
Codec ID/Info                  : Advanced Video Coding
Duration                       : 3 min 13 s
Bit rate                       : 9 787 kb/s
Width                          : 1 920 pixels
Height                         : 960 pixels
Display aspect ratio           : 2.000
Frame rate mode                : Constant
Frame rate                     : 25.000 FPS
Color space                    : YUV
Chroma subsampling             : 4:2:0
Bit depth                      : 8 bits
Scan type                      : Progressive
Bits/(Pixel*Frame)             : 0.212
Stream size                    : 226 MiB (97%)
Color range                    : Limited
Color primaries                : BT.709
Transfer characteristics       : BT.709
Matrix coefficients            : BT.709
Codec configuration box        : avcC

Audio
ID                             : 2
Format                         : AAC LC
Format/Info                    : Advanced Audio Codec Low Complexity
Codec ID                       : mp4a-40-2
Duration                       : 3 min 13 s
Duration_LastFrame             : -5 ms
Bit rate mode                  : Constant
Bit rate                       : 251 kb/s
Channel(s)                     : 2 channels
Channel layout                 : L R
Sampling rate                  : 48.0 kHz
Frame rate                     : 46.875 FPS (1024 SPF)
Compression mode               : Lossy
Stream size                    : 5.79 MiB (2%)
Default                        : Yes
Alternate group                : 1

</pre>
</div>
<div class="bbCodeBlock bbCodeVfcHH HiddenContent">
<div class="attribution type">Hidden Content:</div>
<blockquote>You must either reply or click 'Like' to see the hidden information contained here.</blockquote>
</div>
<div class="messageTextEndMarker">&nbsp;</div>
</blockquote>
</article>]]></description>
                <author><![CDATA[vitalya3]]></author>
                </item>

                
                <item>
                <title><![CDATA[【Albums (lossless)】PACK - Katy Perry @ Discography + Apple Videos [Apple Lossless 16-24 bits/44,1-48 kHz]]]></title>
                <link><![CDATA[https://sharemania.us/threads/katy-perry-discography-apple-videos-apple-lossless-16-24-bits-44-1-48-khz.249860/]]></link>
                <description><![CDATA[<article>
<blockquote class="messageText SelectQuoteContainer ugc baseHtml">
<img src="https://i.ibb.co/fNMrCbN/banner.jpg" class="bbCodeImage LbImage" alt="[​IMG]" data-url="https://i.ibb.co/fNMrCbN/banner.jpg" style=""><br>
<img src="https://i.ibb.co/w4SvZd5/1.png" class="bbCodeImage LbImage" alt="[​IMG]" data-url="https://i.ibb.co/w4SvZd5/1.png" style=""><br>
<img src="https://i.ibb.co/zhMPrvC/2.png" class="bbCodeImage LbImage" alt="[​IMG]" data-url="https://i.ibb.co/zhMPrvC/2.png" style=""><br>
<img src="https://i.ibb.co/M8CpmvL/3.png" class="bbCodeImage LbImage" alt="[​IMG]" data-url="https://i.ibb.co/M8CpmvL/3.png" style=""><br>
<img src="https://i.ibb.co/G5Y8qt5/4.png" class="bbCodeImage LbImage" alt="[​IMG]" data-url="https://i.ibb.co/G5Y8qt5/4.png" style=""><br>
<img src="https://i.ibb.co/mFNdVCG/5.png" class="bbCodeImage LbImage" alt="[​IMG]" data-url="https://i.ibb.co/mFNdVCG/5.png" style=""><br>
<img src="https://i.ibb.co/s1XW5jv/6.png" class="bbCodeImage LbImage" alt="[​IMG]" data-url="https://i.ibb.co/s1XW5jv/6.png" style=""><br>
<img src="https://i.ibb.co/qRYTPYd/7.png" class="bbCodeImage LbImage" alt="[​IMG]" data-url="https://i.ibb.co/qRYTPYd/7.png" style=""><br>
<img src="https://i.ibb.co/09vX0Dp/8.png" class="bbCodeImage LbImage" alt="[​IMG]" data-url="https://i.ibb.co/09vX0Dp/8.png" style=""><br>
<img src="https://i.ibb.co/YQkYkZp/9.png" class="bbCodeImage LbImage" alt="[​IMG]" data-url="https://i.ibb.co/YQkYkZp/9.png" style=""><br>
<img src="https://i.ibb.co/pRvNRhg/10.png" class="bbCodeImage LbImage" alt="[​IMG]" data-url="https://i.ibb.co/pRvNRhg/10.png" style=""><br>
<img src="https://i.ibb.co/kcfdY8g/11.png" class="bbCodeImage LbImage" alt="[​IMG]" data-url="https://i.ibb.co/kcfdY8g/11.png" style=""> <br>
<span style="color: #000000">
<div class="bbCodeBlock bbCodeVfcHH HiddenContent">
<div class="attribution type">Hidden Content:</div>
<blockquote>You must reply before you can see the hidden data contained here.</blockquote>
</div></span>
<div class="messageTextEndMarker">&nbsp;</div>
</blockquote>
</article>]]></description>
                <author><![CDATA[itunesboy]]></author>
                </item>

                
                <item>
                <title><![CDATA[【Albums (lossy)】Dolby Atmos - Lana Del Rey - Driving In Cars With Boys (Dolby Atmos Upgrade)]]></title>
                <link><![CDATA[https://sharemania.us/threads/lana-del-rey-driving-in-cars-with-boys-dolby-atmos-upgrade.249863/]]></link>
                <description><![CDATA[<article>
<blockquote class="messageText SelectQuoteContainer ugc baseHtml">
thanks
<div class="messageTextEndMarker">&nbsp;</div>
</blockquote>
</article>]]></description>
                <author><![CDATA[nevidbowie]]></author>
                </item>

                </channel></rss>